<svg width="136" height="30" xmlns="http://www.w3.org/2000/svg" xmlns:xlink="http://www.w3.org/1999/xlink"><defs><path id="a" d="M.02.138h26.44v23.499H.02z"/></defs><g fill="none" fill-rule="evenodd"><path fill="#F17900" d="M0 8.02V30h4.724V16.435l5.83 8.854h2.743l4.32-6.54.908-1.373-2.441-4.213-.908 1.378-3.235 4.908L4.378 8.02zm62.557 4.102h-3.52v13.722h3.52c4.37 0 6.727-2.329 6.727-6.861s-2.357-6.86-6.727-6.86Zm0-4.154c7.828 0 11.536 4.626 11.536 11.015s-3.708 11.015-11.536 11.015h-8.235V7.968h8.235Zm22.245 0c2.508 0 5.047.605 6.86 1.634v4.236c-1.783-1.27-4.17-1.906-6.528-1.876-2.297.03-3.446.666-3.446 1.967 0 3.662 11.576 2.3 11.576 9.835 0 4.751-3.808 6.234-8.251 6.234-2.932 0-5.652-.696-7.828-1.906v-4.328a13.536 13.536 0 0 0 7.496 2.24c2.448 0 3.959-.515 3.959-2.028 0-3.964-11.576-2.481-11.576-9.986 0-4.086 3.567-6.022 7.738-6.022m27.522 0v4.154h-10.781v4.69h9.838v4.122h-9.838v4.91h10.97v4.154H96.828V7.968zm4 22.03V7.968h4.432l10.247 14.383a46.5 46.5 0 0 1-.094-3.022V7.968h4.715v22.03h-4.432l-10.247-14.383c.062.913.094 2.014.094 3.022v11.361h-4.715Zm-75.936-17.99a2.119 2.119 0 0 0-.279-1.186L38.463 7.97h-1.699l2.069 3.588c.08.14.106.3.073.451h1.482Z"/><path d="m51.184 19.983-5.2 9.015A1.993 1.993 0 0 1 44.257 30h-10.4a1.993 1.993 0 0 1-1.728-1.002l-3.091-5.361-.851-1.472-1.258-2.182a2.01 2.01 0 0 1 0-2l5.2-9.015a1.99 1.99 0 0 1 1.728-.999h2.908l2.068 3.588c.08.14.106.3.073.451h-3.872l-4.023 6.977 1.826 3.165.748 1.3 1.449 2.511h8.046l4.022-6.976-4.022-6.977h-2.692a2.118 2.118 0 0 0-.279-1.186L38.463 7.97h5.794a1.99 1.99 0 0 1 1.727.999l5.2 9.014c.356.62.356 1.38 0 2.001" fill="#F17900"/><g transform="translate(13.93)"><mask id="b" fill="#fff"><use xlink:href="#a"/></mask><path d="M9.852 22.165v1.472h5.255l-.85-1.472H9.851Zm16.326-11.343L24.532 7.97 20.63 1.202A2.132 2.132 0 0 0 18.785.137H7.695c-.762 0-1.462.408-1.844 1.065l-5.548 9.62a2.143 2.143 0 0 0 0 2.13l.894 1.553 2.436 4.22 1.507 2.613v-2.944l-.602-1.047-2.435-4.223-.524-.906a.664.664 0 0 1 0-.661L7.124 1.94a.66.66 0 0 1 .572-.33h11.09c.234 0 .454.125.571.33l3.477 6.03 2.068 3.587c.08.14.107.3.074.451a.626.626 0 0 1-.074.21l-5.545 9.616a.636.636 0 0 1-.45.316l.748 1.3a2.13 2.13 0 0 0 .975-.878l5.548-9.62a2.13 2.13 0 0 0 .28-.944 2.118 2.118 0 0 0-.28-1.186Z" fill="#F17900" mask="url(#b)"/></g><path fill="#F17900" d="M23.783 7.97V30H19.07V16.433l-.601.914-2.435-4.222 3.381-5.156z"/></g></svg>